<svg version="1.2" xmlns="http://www.w3.org/2000/svg" viewBox="0 0 1677 782" width="2000" height="933">
	<title>logo_w-svg-svg</title>
	<style>
		.s0 { opacity: .4;fill: #ffffff } 
		.s1 { opacity: .7;fill: #ffffff } 
		.s2 { fill: #ffffff } 
	</style>
	<path id="UNLWLY 3" class="s0" d="m260 554.7l-20 149.3c-3.3 24.8-14.8 42.3-36.9 55.6-23.9 14.5-56.9 22.4-93.4 22.4-36.4 0-67.4-7.9-87.4-22.4-18.5-13.3-25.3-30.8-22-55.6l19.9-149.3h62.2l-19.9 149.3c-3.6 26.7 13.4 39.3 52.4 39.3 39 0 59.3-12.6 62.9-39.3l20-149.3zm109.5 68.1l-20.4 152.2h-62.2l29.4-220.3h64l99.8 150 19.9-150h62.2l-29.4 220.3h-62.2zm289.1 114.5h144.7l-5 37.7h-206.9l29.4-220.2h62.2zm371.1 37.8l-27.6-171.9-72.4 171.9h-55.9l-56.1-220.3h66l24.8 165 69-165h61.4l26.8 165.2 67.2-165.2h66l-113.2 220.3zm241.8-37.8h144.7l-5 37.8h-207l29.4-220.3h62.2zm279.7 37.8h-62.2l10.9-81.6-81.8-138.7h69.3l48.8 97.3 70.6-97.3h69.7l-114.3 138.7z"/>
	<path id="UNLWLY 2" class="s1" d="m260 277.4l-20 149.3c-3.3 24.7-14.8 42.2-36.9 55.5-23.9 14.6-56.9 22.4-93.4 22.4-36.4 0-67.4-7.8-87.4-22.4-18.5-13.3-25.3-30.8-22-55.5l19.9-149.3h62.2l-19.9 149.3c-3.6 26.6 13.4 39.3 52.4 39.3 39 0 59.3-12.7 62.9-39.3l20-149.3zm109.5 68l-20.4 152.2h-62.2l29.4-220.2h64l99.8 149.9 19.9-149.9h62.2l-29.4 220.2h-62.2zm289.1 114.5h144.7l-5 37.8h-206.9l29.4-220.3h62.2zm371.1 37.8l-27.6-171.9-72.4 171.9h-55.9l-56.1-220.3h66l24.8 165 69-165h61.4l26.8 165.2 67.2-165.2h66l-113.2 220.3zm241.8-37.8h144.7l-5 37.8h-207l29.4-220.3h62.2zm279.7 37.8h-62.2l10.9-81.6-81.8-138.7h69.3l48.8 97.3 70.6-97.3h69.7l-114.3 138.7z"/>
	<path id="UNLWLY" class="s2" d="m260 0l-20 149.3c-3.3 24.8-14.8 42.2-36.9 55.6-23.9 14.5-56.9 22.4-93.4 22.4-36.4 0-67.4-7.9-87.4-22.4-18.5-13.4-25.3-30.8-22-55.6l19.9-149.3h62.2l-19.9 149.3c-3.6 26.6 13.4 39.3 52.4 39.3 39 0 59.3-12.7 62.9-39.3l20-149.3zm109.5 68l-20.4 152.3h-62.2l29.4-220.3h64l99.8 149.9 19.9-149.9h62.2l-29.4 220.3h-62.2zm289.1 114.4h144.7l-5 37.8h-206.9l29.4-220.3h62.2zm371.1 37.8l-27.6-171.9-72.4 171.9h-55.9l-56.1-220.2h66l24.8 165 69-165h61.4l26.8 165.2 67.2-165.2h66l-113.2 220.2zm241.8-37.8h144.7l-5 37.8h-207l29.4-220.2h62.2zm279.7 37.7h-62.2l10.9-81.5-81.8-138.7h69.3l48.8 97.3 70.6-97.3h69.7l-114.3 138.7z"/>
</svg>